# xmcd
#
# Track frame offsets:
#	225
#	11037
#	22920
#	34221
#	45211
#	55107
#	68488
#	79691
#	97498
#	109802
#	121621
#	136279
#	146310
#	158919
#	171674
#	191829
#
# Disc length: 2701 seconds
#
# Revision: 2
# Processed by: cddbd v1.5.2PL0 Copyright (c) Steve Scherf et al.
# Submitted via: audiograbber 1.83.01
#
DISCID=d30a8a10
DTITLE=Various Artist - The Best of Country and Western Vol.2
DYEAR=1900
DGENRE=Country
TTITLE0=Kenny Rogers - She even woke me up to say good bye
TTITLE1=Patsy Cline - Walkin' after Midnight
TTITLE2=Waylon Jennings - Sally was a good old girl
TTITLE3=Dolly Parton - It wasn't Good who made honky tonk angels
TTITLE4=Dave Dudley - Six days on the road
TTITLE5=Lynn Anderson - Rose Garden (I Never Promised You A...)
TTITLE6=Hank Locklin - Send me the pillow that you dream on
TTITLE7=Tex Smith - Banks of Ohio
TTITLE8=Roy Acuff - I saw the light
TTITLE9=Don Williams - Follow me back to Louisville
TTITLE10=Andy Forstmann - My Tennessee home
TTITLE11=Glen Campell and Herb Alpert - It's a good thing
TTITLE12=Johny Cash - Folson prison blues
TTITLE13=Laura and Bill - Jackson
TTITLE14=Gram Parsons and Emmylou Harris - Love hurts
TTITLE15=Jerry Lee Lewis - Honky tonk heart
EXTD=
EXTT0=
EXTT1=
EXTT2=
EXTT3=
EXTT4=
EXTT5=
EXTT6=
EXTT7=
EXTT8=
EXTT9=
EXTT10=
EXTT11=
EXTT12=
EXTT13=
EXTT14=
EXTT15=
PLAYORDER=
